<mxfile host="app.diagrams.net" modified="2024-01-12T03:19:17.681Z" agent="Mozilla/5.0 (Windows NT 10.0; Win64; x64) AppleWebKit/537.36 (KHTML, like Gecko) Chrome/120.0.0.0 Safari/537.36" etag="f_jr9LQz4f3nAJXBfczW" version="22.1.18" type="github">
  <diagram name="Halaman-1" id="X39AGLeUEUcifDFqh_xV">
    <mxGraphModel dx="2620" dy="2051" grid="0" gridSize="10" guides="1" tooltips="1" connect="1" arrows="1" fold="1" page="0" pageScale="1" pageWidth="827" pageHeight="1169" math="0" shadow="0">
      <root>
        <mxCell id="0" />
        <mxCell id="1" parent="0" />
        <mxCell id="WXR1SgdqpgOzqqLkaA0c-1" value="Pengunjung&lt;br&gt;datang" style="rounded=1;whiteSpace=wrap;html=1;fontSize=16;" vertex="1" parent="1">
          <mxGeometry x="-80.5" y="-538" width="120" height="60" as="geometry" />
        </mxCell>
        <mxCell id="WXR1SgdqpgOzqqLkaA0c-46" style="edgeStyle=none;curved=1;rounded=0;orthogonalLoop=1;jettySize=auto;html=1;fontSize=12;startSize=8;endSize=8;" edge="1" parent="1" source="WXR1SgdqpgOzqqLkaA0c-3" target="WXR1SgdqpgOzqqLkaA0c-10">
          <mxGeometry relative="1" as="geometry" />
        </mxCell>
        <mxCell id="WXR1SgdqpgOzqqLkaA0c-3" value="Pengunjung&lt;br&gt;memesan" style="rounded=0;whiteSpace=wrap;html=1;fontSize=16;" vertex="1" parent="1">
          <mxGeometry x="-80.5" y="-291" width="120" height="60" as="geometry" />
        </mxCell>
        <mxCell id="WXR1SgdqpgOzqqLkaA0c-7" value="" style="html=1;verticalAlign=bottom;labelBackgroundColor=none;endArrow=block;endFill=1;rounded=0;fontSize=12;startSize=8;endSize=8;curved=1;exitX=0.5;exitY=1;exitDx=0;exitDy=0;" edge="1" parent="1" source="WXR1SgdqpgOzqqLkaA0c-1">
          <mxGeometry width="160" relative="1" as="geometry">
            <mxPoint x="-22.5" y="-263" as="sourcePoint" />
            <mxPoint x="-22.5" y="-292" as="targetPoint" />
          </mxGeometry>
        </mxCell>
        <mxCell id="WXR1SgdqpgOzqqLkaA0c-10" value="Kasir menginput pesanan" style="shape=parallelogram;perimeter=parallelogramPerimeter;whiteSpace=wrap;html=1;fixedSize=1;fontSize=16;" vertex="1" parent="1">
          <mxGeometry x="127" y="-293" width="165" height="60" as="geometry" />
        </mxCell>
        <mxCell id="WXR1SgdqpgOzqqLkaA0c-27" style="edgeStyle=none;curved=1;rounded=0;orthogonalLoop=1;jettySize=auto;html=1;entryX=0;entryY=0.5;entryDx=0;entryDy=0;fontSize=12;startSize=8;endSize=8;" edge="1" parent="1" source="WXR1SgdqpgOzqqLkaA0c-16" target="WXR1SgdqpgOzqqLkaA0c-26">
          <mxGeometry relative="1" as="geometry" />
        </mxCell>
        <mxCell id="WXR1SgdqpgOzqqLkaA0c-80" style="edgeStyle=none;curved=1;rounded=0;orthogonalLoop=1;jettySize=auto;html=1;fontSize=12;startSize=8;endSize=8;" edge="1" parent="1" source="WXR1SgdqpgOzqqLkaA0c-26" target="WXR1SgdqpgOzqqLkaA0c-78">
          <mxGeometry relative="1" as="geometry" />
        </mxCell>
        <mxCell id="WXR1SgdqpgOzqqLkaA0c-26" value="Barista menerima informasi pesanan" style="shape=parallelogram;perimeter=parallelogramPerimeter;whiteSpace=wrap;html=1;fixedSize=1;fontSize=16;" vertex="1" parent="1">
          <mxGeometry x="1021" y="-360.5" width="188" height="60" as="geometry" />
        </mxCell>
        <mxCell id="WXR1SgdqpgOzqqLkaA0c-30" value="Barista membuat pesanan" style="rounded=0;whiteSpace=wrap;html=1;fontSize=16;" vertex="1" parent="1">
          <mxGeometry x="1040" y="46" width="150" height="60" as="geometry" />
        </mxCell>
        <mxCell id="WXR1SgdqpgOzqqLkaA0c-35" style="edgeStyle=none;curved=1;rounded=0;orthogonalLoop=1;jettySize=auto;html=1;fontSize=12;startSize=8;endSize=8;" edge="1" parent="1" source="WXR1SgdqpgOzqqLkaA0c-32" target="WXR1SgdqpgOzqqLkaA0c-34">
          <mxGeometry relative="1" as="geometry" />
        </mxCell>
        <mxCell id="WXR1SgdqpgOzqqLkaA0c-32" value="Status pesanan" style="shape=parallelogram;perimeter=parallelogramPerimeter;whiteSpace=wrap;html=1;fixedSize=1;fontSize=16;" vertex="1" parent="1">
          <mxGeometry x="1016.25" y="167" width="200" height="60" as="geometry" />
        </mxCell>
        <mxCell id="WXR1SgdqpgOzqqLkaA0c-33" style="edgeStyle=none;curved=1;rounded=0;orthogonalLoop=1;jettySize=auto;html=1;fontSize=12;startSize=8;endSize=8;" edge="1" parent="1" source="WXR1SgdqpgOzqqLkaA0c-30" target="WXR1SgdqpgOzqqLkaA0c-32">
          <mxGeometry relative="1" as="geometry" />
        </mxCell>
        <mxCell id="WXR1SgdqpgOzqqLkaA0c-38" style="edgeStyle=none;curved=1;rounded=0;orthogonalLoop=1;jettySize=auto;html=1;fontSize=12;startSize=8;endSize=8;" edge="1" parent="1" source="WXR1SgdqpgOzqqLkaA0c-34" target="WXR1SgdqpgOzqqLkaA0c-37">
          <mxGeometry relative="1" as="geometry" />
        </mxCell>
        <mxCell id="WXR1SgdqpgOzqqLkaA0c-34" value="Selesai dibuat" style="rhombus;whiteSpace=wrap;html=1;fontSize=16;" vertex="1" parent="1">
          <mxGeometry x="1044" y="298" width="153" height="94" as="geometry" />
        </mxCell>
        <mxCell id="WXR1SgdqpgOzqqLkaA0c-40" style="edgeStyle=none;curved=1;rounded=0;orthogonalLoop=1;jettySize=auto;html=1;fontSize=12;startSize=8;endSize=8;" edge="1" parent="1" source="WXR1SgdqpgOzqqLkaA0c-37" target="WXR1SgdqpgOzqqLkaA0c-39">
          <mxGeometry relative="1" as="geometry" />
        </mxCell>
        <mxCell id="WXR1SgdqpgOzqqLkaA0c-37" value="Barista menyajikan pesanan" style="shape=document;whiteSpace=wrap;html=1;boundedLbl=1;fontSize=16;" vertex="1" parent="1">
          <mxGeometry x="776" y="305" width="160" height="80" as="geometry" />
        </mxCell>
        <mxCell id="WXR1SgdqpgOzqqLkaA0c-42" value="" style="edgeStyle=none;curved=1;rounded=0;orthogonalLoop=1;jettySize=auto;html=1;fontSize=12;startSize=8;endSize=8;" edge="1" parent="1" source="WXR1SgdqpgOzqqLkaA0c-39" target="WXR1SgdqpgOzqqLkaA0c-41">
          <mxGeometry relative="1" as="geometry" />
        </mxCell>
        <mxCell id="WXR1SgdqpgOzqqLkaA0c-39" value="Pembeli makan" style="rounded=0;whiteSpace=wrap;html=1;fontSize=16;" vertex="1" parent="1">
          <mxGeometry x="568" y="313" width="150" height="60" as="geometry" />
        </mxCell>
        <mxCell id="WXR1SgdqpgOzqqLkaA0c-41" value="Tambah pesanan" style="rhombus;whiteSpace=wrap;html=1;fontSize=16;rounded=0;" vertex="1" parent="1">
          <mxGeometry x="555" y="199" width="170" height="80" as="geometry" />
        </mxCell>
        <mxCell id="WXR1SgdqpgOzqqLkaA0c-47" value="" style="group" vertex="1" connectable="0" parent="1">
          <mxGeometry x="284" y="-380" width="391" height="238" as="geometry" />
        </mxCell>
        <mxCell id="WXR1SgdqpgOzqqLkaA0c-11" value="" style="endArrow=none;html=1;rounded=0;fontSize=12;startSize=8;endSize=8;curved=1;" edge="1" parent="WXR1SgdqpgOzqqLkaA0c-47">
          <mxGeometry width="50" height="50" relative="1" as="geometry">
            <mxPoint y="118.72999999999999" as="sourcePoint" />
            <mxPoint x="79" y="118.72999999999999" as="targetPoint" />
          </mxGeometry>
        </mxCell>
        <mxCell id="WXR1SgdqpgOzqqLkaA0c-12" value="" style="endArrow=none;html=1;rounded=0;fontSize=12;startSize=8;endSize=8;curved=1;" edge="1" parent="WXR1SgdqpgOzqqLkaA0c-47">
          <mxGeometry width="50" height="50" relative="1" as="geometry">
            <mxPoint x="79" y="119" as="sourcePoint" />
            <mxPoint x="79" y="47" as="targetPoint" />
          </mxGeometry>
        </mxCell>
        <mxCell id="WXR1SgdqpgOzqqLkaA0c-13" value="" style="endArrow=none;html=1;rounded=0;fontSize=12;startSize=8;endSize=8;curved=1;" edge="1" parent="WXR1SgdqpgOzqqLkaA0c-47">
          <mxGeometry width="50" height="50" relative="1" as="geometry">
            <mxPoint x="79" y="190" as="sourcePoint" />
            <mxPoint x="79" y="118" as="targetPoint" />
          </mxGeometry>
        </mxCell>
        <mxCell id="WXR1SgdqpgOzqqLkaA0c-14" value="" style="html=1;verticalAlign=bottom;labelBackgroundColor=none;endArrow=block;endFill=1;rounded=0;fontSize=12;startSize=8;endSize=8;curved=1;exitX=1.017;exitY=0.422;exitDx=0;exitDy=0;exitPerimeter=0;" edge="1" parent="WXR1SgdqpgOzqqLkaA0c-47">
          <mxGeometry width="160" relative="1" as="geometry">
            <mxPoint x="79" y="189.32000000000005" as="sourcePoint" />
            <mxPoint x="208" y="189" as="targetPoint" />
          </mxGeometry>
        </mxCell>
        <mxCell id="WXR1SgdqpgOzqqLkaA0c-15" value="" style="html=1;verticalAlign=bottom;labelBackgroundColor=none;endArrow=block;endFill=1;rounded=0;fontSize=12;startSize=8;endSize=8;curved=1;exitX=1.017;exitY=0.422;exitDx=0;exitDy=0;exitPerimeter=0;entryX=0.038;entryY=0.505;entryDx=0;entryDy=0;entryPerimeter=0;" edge="1" parent="WXR1SgdqpgOzqqLkaA0c-47" target="WXR1SgdqpgOzqqLkaA0c-16">
          <mxGeometry width="160" relative="1" as="geometry">
            <mxPoint x="79" y="47.32000000000005" as="sourcePoint" />
            <mxPoint x="208" y="47" as="targetPoint" />
          </mxGeometry>
        </mxCell>
        <mxCell id="WXR1SgdqpgOzqqLkaA0c-16" value="Stok tersedia" style="rhombus;whiteSpace=wrap;html=1;fontSize=16;" vertex="1" parent="WXR1SgdqpgOzqqLkaA0c-47">
          <mxGeometry x="210" width="181" height="99" as="geometry" />
        </mxCell>
        <mxCell id="WXR1SgdqpgOzqqLkaA0c-17" value="Stok tidak tersedia" style="rhombus;whiteSpace=wrap;html=1;fontSize=16;" vertex="1" parent="WXR1SgdqpgOzqqLkaA0c-47">
          <mxGeometry x="213" y="137" width="168" height="101" as="geometry" />
        </mxCell>
        <mxCell id="WXR1SgdqpgOzqqLkaA0c-69" value="YA" style="text;html=1;align=center;verticalAlign=middle;resizable=0;points=[];autosize=1;strokeColor=none;fillColor=none;fontSize=16;" vertex="1" parent="WXR1SgdqpgOzqqLkaA0c-47">
          <mxGeometry x="93" y="7" width="38" height="31" as="geometry" />
        </mxCell>
        <mxCell id="WXR1SgdqpgOzqqLkaA0c-48" value="Pengunjung pergi" style="rounded=1;whiteSpace=wrap;html=1;fontSize=16;" vertex="1" parent="1">
          <mxGeometry x="380" y="313" width="120" height="60" as="geometry" />
        </mxCell>
        <mxCell id="WXR1SgdqpgOzqqLkaA0c-51" value="" style="endArrow=classic;html=1;rounded=0;fontSize=12;startSize=8;endSize=8;curved=1;entryX=0.5;entryY=0;entryDx=0;entryDy=0;" edge="1" parent="1" target="WXR1SgdqpgOzqqLkaA0c-48">
          <mxGeometry width="50" height="50" relative="1" as="geometry">
            <mxPoint x="440" y="239" as="sourcePoint" />
            <mxPoint x="473" y="117" as="targetPoint" />
          </mxGeometry>
        </mxCell>
        <mxCell id="WXR1SgdqpgOzqqLkaA0c-53" value="" style="endArrow=none;html=1;rounded=0;fontSize=12;startSize=8;endSize=8;curved=1;entryX=0;entryY=0.5;entryDx=0;entryDy=0;" edge="1" parent="1" target="WXR1SgdqpgOzqqLkaA0c-41">
          <mxGeometry width="50" height="50" relative="1" as="geometry">
            <mxPoint x="440" y="239" as="sourcePoint" />
            <mxPoint x="473" y="270" as="targetPoint" />
          </mxGeometry>
        </mxCell>
        <mxCell id="WXR1SgdqpgOzqqLkaA0c-54" value="TIDAK" style="text;html=1;align=center;verticalAlign=middle;resizable=0;points=[];autosize=1;strokeColor=none;fillColor=none;fontSize=16;" vertex="1" parent="1">
          <mxGeometry x="459" y="206" width="65" height="31" as="geometry" />
        </mxCell>
        <mxCell id="WXR1SgdqpgOzqqLkaA0c-55" value="" style="endArrow=none;html=1;rounded=0;fontSize=12;startSize=8;endSize=8;curved=1;exitX=0.5;exitY=0;exitDx=0;exitDy=0;" edge="1" parent="1" source="WXR1SgdqpgOzqqLkaA0c-41">
          <mxGeometry width="50" height="50" relative="1" as="geometry">
            <mxPoint x="619" y="90" as="sourcePoint" />
            <mxPoint x="643" y="-24" as="targetPoint" />
          </mxGeometry>
        </mxCell>
        <mxCell id="WXR1SgdqpgOzqqLkaA0c-56" value="" style="endArrow=none;html=1;rounded=0;fontSize=12;startSize=8;endSize=8;curved=1;" edge="1" parent="1">
          <mxGeometry width="50" height="50" relative="1" as="geometry">
            <mxPoint x="643" y="-23" as="sourcePoint" />
            <mxPoint x="84" y="-25" as="targetPoint" />
          </mxGeometry>
        </mxCell>
        <mxCell id="WXR1SgdqpgOzqqLkaA0c-57" value="" style="endArrow=none;html=1;rounded=0;fontSize=12;startSize=8;endSize=8;curved=1;exitX=0.5;exitY=0;exitDx=0;exitDy=0;" edge="1" parent="1">
          <mxGeometry width="50" height="50" relative="1" as="geometry">
            <mxPoint x="84" y="-25" as="sourcePoint" />
            <mxPoint x="86" y="-187" as="targetPoint" />
          </mxGeometry>
        </mxCell>
        <mxCell id="WXR1SgdqpgOzqqLkaA0c-58" value="" style="endArrow=none;html=1;rounded=0;fontSize=12;startSize=8;endSize=8;curved=1;" edge="1" parent="1">
          <mxGeometry width="50" height="50" relative="1" as="geometry">
            <mxPoint x="86" y="-187" as="sourcePoint" />
            <mxPoint x="-5" y="-187" as="targetPoint" />
          </mxGeometry>
        </mxCell>
        <mxCell id="WXR1SgdqpgOzqqLkaA0c-61" value="" style="endArrow=classic;html=1;rounded=0;fontSize=12;startSize=8;endSize=8;curved=1;entryX=0.639;entryY=1.012;entryDx=0;entryDy=0;entryPerimeter=0;" edge="1" parent="1" target="WXR1SgdqpgOzqqLkaA0c-3">
          <mxGeometry width="50" height="50" relative="1" as="geometry">
            <mxPoint x="-5" y="-187" as="sourcePoint" />
            <mxPoint x="76" y="-219" as="targetPoint" />
          </mxGeometry>
        </mxCell>
        <mxCell id="WXR1SgdqpgOzqqLkaA0c-62" value="" style="endArrow=none;html=1;rounded=0;fontSize=12;startSize=8;endSize=8;curved=1;" edge="1" parent="1">
          <mxGeometry width="50" height="50" relative="1" as="geometry">
            <mxPoint x="582" y="-68" as="sourcePoint" />
            <mxPoint x="582" y="-142" as="targetPoint" />
          </mxGeometry>
        </mxCell>
        <mxCell id="WXR1SgdqpgOzqqLkaA0c-63" value="" style="endArrow=none;html=1;rounded=0;fontSize=12;startSize=8;endSize=8;curved=1;" edge="1" parent="1">
          <mxGeometry width="50" height="50" relative="1" as="geometry">
            <mxPoint x="583" y="-68" as="sourcePoint" />
            <mxPoint x="127" y="-71" as="targetPoint" />
          </mxGeometry>
        </mxCell>
        <mxCell id="WXR1SgdqpgOzqqLkaA0c-64" value="" style="endArrow=none;html=1;rounded=0;fontSize=12;startSize=8;endSize=8;curved=1;" edge="1" parent="1">
          <mxGeometry width="50" height="50" relative="1" as="geometry">
            <mxPoint x="127" y="-71" as="sourcePoint" />
            <mxPoint x="129" y="-211" as="targetPoint" />
          </mxGeometry>
        </mxCell>
        <mxCell id="WXR1SgdqpgOzqqLkaA0c-65" value="" style="endArrow=none;html=1;rounded=0;fontSize=12;startSize=8;endSize=8;curved=1;" edge="1" parent="1">
          <mxGeometry width="50" height="50" relative="1" as="geometry">
            <mxPoint x="130.5" y="-210" as="sourcePoint" />
            <mxPoint x="23" y="-210" as="targetPoint" />
          </mxGeometry>
        </mxCell>
        <mxCell id="WXR1SgdqpgOzqqLkaA0c-66" value="" style="endArrow=classic;html=1;rounded=0;fontSize=12;startSize=8;endSize=8;curved=1;entryX=0.875;entryY=0.996;entryDx=0;entryDy=0;entryPerimeter=0;" edge="1" parent="1" target="WXR1SgdqpgOzqqLkaA0c-3">
          <mxGeometry width="50" height="50" relative="1" as="geometry">
            <mxPoint x="23" y="-210" as="sourcePoint" />
            <mxPoint x="352" y="-104" as="targetPoint" />
          </mxGeometry>
        </mxCell>
        <mxCell id="WXR1SgdqpgOzqqLkaA0c-67" value="YA" style="text;html=1;align=center;verticalAlign=middle;resizable=0;points=[];autosize=1;strokeColor=none;fillColor=none;fontSize=16;" vertex="1" parent="1">
          <mxGeometry x="587" y="95" width="38" height="31" as="geometry" />
        </mxCell>
        <mxCell id="WXR1SgdqpgOzqqLkaA0c-68" value="TIDAK" style="text;html=1;align=center;verticalAlign=middle;resizable=0;points=[];autosize=1;strokeColor=none;fillColor=none;fontSize=16;" vertex="1" parent="1">
          <mxGeometry x="330" y="-101" width="65" height="31" as="geometry" />
        </mxCell>
        <mxCell id="WXR1SgdqpgOzqqLkaA0c-83" style="edgeStyle=none;curved=1;rounded=0;orthogonalLoop=1;jettySize=auto;html=1;fontSize=12;startSize=8;endSize=8;" edge="1" parent="1" source="WXR1SgdqpgOzqqLkaA0c-76" target="WXR1SgdqpgOzqqLkaA0c-30">
          <mxGeometry relative="1" as="geometry" />
        </mxCell>
        <mxCell id="WXR1SgdqpgOzqqLkaA0c-76" value="Record data pemesanan" style="shape=cylinder3;whiteSpace=wrap;html=1;boundedLbl=1;backgroundOutline=1;size=15;fontSize=16;direction=south;" vertex="1" parent="1">
          <mxGeometry x="1037.5" y="-62" width="157.5" height="60" as="geometry" />
        </mxCell>
        <mxCell id="WXR1SgdqpgOzqqLkaA0c-81" style="edgeStyle=none;curved=1;rounded=0;orthogonalLoop=1;jettySize=auto;html=1;fontSize=12;startSize=8;endSize=8;" edge="1" parent="1" source="WXR1SgdqpgOzqqLkaA0c-78" target="WXR1SgdqpgOzqqLkaA0c-79">
          <mxGeometry relative="1" as="geometry" />
        </mxCell>
        <mxCell id="WXR1SgdqpgOzqqLkaA0c-78" value="Kasir memberikan struk pembayaran" style="shape=document;whiteSpace=wrap;html=1;boundedLbl=1;fontSize=16;" vertex="1" parent="1">
          <mxGeometry x="1035" y="-264" width="160" height="80" as="geometry" />
        </mxCell>
        <mxCell id="WXR1SgdqpgOzqqLkaA0c-82" style="edgeStyle=none;curved=1;rounded=0;orthogonalLoop=1;jettySize=auto;html=1;fontSize=12;startSize=8;endSize=8;" edge="1" parent="1" source="WXR1SgdqpgOzqqLkaA0c-79" target="WXR1SgdqpgOzqqLkaA0c-76">
          <mxGeometry relative="1" as="geometry" />
        </mxCell>
        <mxCell id="WXR1SgdqpgOzqqLkaA0c-79" value="Pembeli membayar" style="rounded=0;whiteSpace=wrap;html=1;fontSize=16;" vertex="1" parent="1">
          <mxGeometry x="1040.75" y="-155" width="150" height="60" as="geometry" />
        </mxCell>
      </root>
    </mxGraphModel>
  </diagram>
</mxfile>
